# xmcd
#
# Track frame offsets: 
#        150
#        15805
#        38515
#        58175
#        75235
#        88450
#        108820
#        123200
#        137725
#        151455
#        164335
#        185700
#        210745
#        221855
#        244045
#        276110
#
# Disc length: 3824 seconds
#
# Revision: 6
# Processed by: cddbd v1.5.1PL0 Copyright (c) Steve Scherf et al.
# Submitted via: ExactAudioCopy v0.95a5
#
DISCID=d60eee10
DTITLE=Various Artist - Good Morning Little Schoolgirl
DYEAR=1996
DGENRE=Blues
TTITLE0=Chicago Breakdown - Good Morning Little Schoolgirl
TTITLE1=B. B. King - Everyday I Have the Blues
TTITLE2=Ruth Brown - I'll Never Fall In Love Again
TTITLE3=Nat King Cole - Old Piano Plays the Blues
TTITLE4=Big Maybelle - I Cried for You
TTITLE5=Lightning Hopkins - Woke Up This Morning
TTITLE6=Irma Thomas - These Four Walls
TTITLE7=Bo Diddly - I'm Going Home
TTITLE8=Billie Holiday - Billie's Blues
TTITLE9=John Lee Hooker - Birmingham Blues
TTITLE10=Cissy Houston - Nothing Can Stop Me Now
TTITLE11=Otis Rush and Little Walter - It May Be the Last Time
TTITLE12=Lightning Slim - G. I. Blues
TTITLE13=Roy Brown - Love for Sale
TTITLE14=Big Joe Turner - How Long Blues
TTITLE15=Howlin' Wolf - Wang Dang Doodle
EXTD=LABEL =CMC Home Entertainment\nID =10092-2\nUPC =5703976-10150
EXTD=8\nCOPYRIGHT =1996
EXTT0=
EXTT1=
EXTT2=
EXTT3=
EXTT4=
EXTT5=
EXTT6=
EXTT7=
EXTT8=
EXTT9=
EXTT10=
EXTT11=
EXTT12=
EXTT13=
EXTT14=
EXTT15=Listed - incorrectly - as "Howlin' Wolf - Wang Dang Doddle".
PLAYORDER=
